<?xml version="1.0" encoding="UTF-8" standalone="no"?>
<svg
   version="1.1"
   id="Layer_1"
   x="0px"
   y="0px"
   width="100%"
   viewBox="0 0 1024 1024"
   enable-background="new 0 0 1024 1024"
   xml:space="preserve"
   sodipodi:docname="iron_parrot02.svg"
   inkscape:version="1.4.2 (ebf0e940, 2025-05-08)"
   xmlns:inkscape="http://www.inkscape.org/namespaces/inkscape"
   xmlns:sodipodi="http://sodipodi.sourceforge.net/DTD/sodipodi-0.dtd"
   xmlns="http://www.w3.org/2000/svg"
   xmlns:svg="http://www.w3.org/2000/svg"><defs
   id="defs32" /><sodipodi:namedview
   id="namedview32"
   pagecolor="#ffffff"
   bordercolor="#000000"
   borderopacity="0.25"
   inkscape:showpageshadow="2"
   inkscape:pageopacity="0.0"
   inkscape:pagecheckerboard="0"
   inkscape:deskcolor="#d1d1d1"
   inkscape:zoom="1.1490485"
   inkscape:cx="405.11779"
   inkscape:cy="374.22267"
   inkscape:window-width="1728"
   inkscape:window-height="975"
   inkscape:window-x="0"
   inkscape:window-y="33"
   inkscape:window-maximized="1"
   inkscape:current-layer="Layer_1" />
<path
   fill="#000000"
   opacity="1"
   stroke="none"
   d="m 380.74322,434.75 c 10.21247,-9.90161 25.24503,-31.2623 28.84617,-40.91675 -1.37424,-1.65774 -3.99347,-0.1625 -5.5246,-2.29721 0.65796,-2.98141 2.94669,-5.27191 4.66699,-7.80685 3.94217,-5.80893 7.29904,-11.93354 10.42142,-18.19962 1.03161,-2.07031 2.29864,-4.07818 0.58459,-6.51453 -0.88388,-1.25637 0.18085,-2.5379 0.72229,-3.72741 3.46219,-7.60633 5.67011,-15.63788 8.17481,-23.57865 0.99054,-3.14035 1.06738,-5.38742 -2.94498,-6.42367 4.14313,-9.38144 10.44983,-16.97916 15.31876,-25.276 -1.71308,-2.30451 -4.6944,-2.64719 -5.74652,-5.15738 0.12881,-2.10056 1.96221,-2.58216 3.28604,-3.41571 6.79864,-4.28104 13.97296,-8.71835 18.67071,-14.90869 10.84012,-14.28409 26.50388,-19.14475 42.26133,-23.67408 18.34826,-5.27404 36.94329,-4.10609 55.23986,1.14952 16.31018,4.68502 30.78406,12.69304 42.75299,24.81203 11.91608,12.06555 19.73719,26.28964 21.68903,43.39133 0.25586,2.24124 1.57886,3.99179 2.68298,5.84888 14.8288,24.94305 10.88111,57.91922 -9.25628,77.38464 -5.63263,5.4447 -12.05848,8.70016 -18.95612,9.32175 0.46967,-5.89206 4.37744,-11.22568 2.65503,-18.30777 -5.96301,3.57315 -12.21918,5.54571 -18.33441,7.83767 -3.43213,1.28629 -2.93598,5.6894 -2.43555,8.9408 0.86023,5.58871 2.07788,11.12067 4.06806,16.45529 3.99066,10.69678 5.73516,21.86106 6.56219,33.17703 0.80267,10.98255 -3.02911,21.25653 -5.54108,31.65165 -5.30822,21.96694 -16.64489,41.29934 -27.97937,60.53091 -10.0625,17.07355 -20.46478,33.94818 -30.84906,50.82941 -1.94104,3.15545 -3.6062,6.73199 -7.63031,8.71191 -1.47253,-3.96417 0.77246,-6.94598 1.95417,-9.95483 5.32354,-13.55506 13.22912,-25.7555 20.46582,-38.30304 2.5733,-4.46186 5.20752,-8.88855 7.34607,-13.82764 -22.88935,23.91394 -51.29499,40.74829 -76.50239,61.74176 -0.73895,-3.6062 1.8874,-5.01733 3.30115,-7.01318 2.88608,-4.07422 6.09934,-7.91583 9.15351,-11.87207 1.17971,-1.52814 2.28051,-3.16431 -0.096,-4.57978 -15.92978,-9.48779 -30.51599,-20.79113 -44.49045,-33.38726 -20.44055,21.19805 -38.74506,44.37933 -66.80313,57.15417 -0.27213,-3.26843 1.84125,-4.05713 3.1513,-5.24493 21.8617,-19.82074 43.59781,-39.76795 61.17637,-63.68994 8.29519,-11.28864 15.85385,-23.04395 21.03167,-36.5188 -3.52548,2.76342 -6.97641,5.62872 -10.58914,8.27295 -17.45673,12.77673 -37.21799,21.35638 -56.44928,30.9049 -22.47415,11.15863 -43.70599,24.17731 -62.18619,41.37244 -6.49936,6.04736 -12.12472,12.81091 -17.5614,19.77722 -1.07785,1.3811 -1.64993,3.31091 -3.63589,3.88281 -1.54599,-0.88195 -0.69397,-2.08612 -0.40274,-3.08038 11.84283,-40.43097 23.73788,-80.86139 41.1802,-119.34119 9.25452,-20.41656 20.50232,-39.65686 36.55142,-56.13171 M 562.133,372.92306 c 1.08087,5.85059 -1.09876,11.52668 -0.92554,17.35102 0.0923,3.10351 1.25311,4.92438 4.12854,6.00763 9.15387,3.44858 21.66418,0.46191 27.97455,-6.78977 2.2619,-2.59933 1.64184,-4.96798 -1.75061,-5.07464 -7.99762,-0.25138 -11.83173,-4.70383 -13.88123,-11.87323 -1.69079,-5.91449 -6.0047,-9.57523 -11.36529,-12.00583 -2.06867,1.98221 -2.10791,4.26138 -2.8689,6.24518 -0.64935,1.69299 1.36749,4.10464 -1.84485,4.56039 -2.17365,-4.41263 -2.15179,-9.3674 -3.39325,-14.01617 -0.49628,-1.85846 0.48908,-3.41797 2.71484,-4.04285 9.5824,-2.69031 13.5633,-10.49841 17.50287,-18.69531 -3.06042,-1.74283 -5.60394,-3.28009 -8.23126,-4.65763 -1.90582,-0.99923 -3.1109,-2.31677 -3.41553,-4.54474 -0.61609,-4.50558 -3.23803,-7.98809 -6.26434,-11.12896 -8.4317,-8.7511 -18.94843,-11.61801 -30.84943,-11.30603 -33.80819,0.88629 -60.31152,37.00531 -42.59658,69.76159 13.09079,24.20585 34.5599,35.52619 61.28329,37.91318 3.97534,0.3551 8.28272,0.80383 11.9895,-2.68625 -4.83691,-7.70489 -6.29193,-15.9862 -5.70196,-24.9049 0.35888,-5.42405 2.26403,-9.10868 7.49518,-10.11268 m -134.59382,49.42338 c -12.40341,0.19668 -23.51083,4.18334 -33.42761,11.54382 -14.22348,10.55694 -24.073,24.76178 -32.78421,39.83664 -15.8435,27.41736 -26.4021,57.04648 -36.0267,87.04745 -2.39383,7.46192 -4.89176,14.90448 -6.59421,23.26471 21.84567,-18.50592 45.89353,-31.94531 71.30719,-43.13611 14.0203,-6.1737 28.08878,-12.26611 41.22235,-20.25183 22.48349,-13.67099 37.2829,-31.72473 35.82508,-59.93197 -1.1977,-23.17337 -15.36692,-37.67945 -39.52189,-38.37271 m 31.72333,-124.16962 c 7.73938,2.06256 15.44892,4.42181 22.51984,8.10489 7.21445,3.75784 12.61487,3.71512 20.04782,-1.17667 25.56015,-16.82153 59.95126,-7.59387 69.5925,20.09744 0.96686,2.77719 2.88818,3.48117 5.68835,3.82218 3.5788,0.43573 6.22168,0.15475 8.62519,-3.04083 2.92376,-3.8873 7.04211,-6.47745 11.59741,-8.4029 3.70386,-1.56558 7.75036,-1.32168 12.03961,-2.50378 -2.29199,-10.84238 -7.4599,-19.93311 -14.84229,-27.48374 -27.21148,-27.83154 -60.01959,-35.07457 -97.15872,-25.53924 -18.17395,4.66607 -30.96676,16.84344 -42.69876,30.50262 -0.724,0.84293 -1.51196,1.83741 -0.89545,3.50351 1.18204,1.08975 3.00107,1.39463 5.4845,2.11652 m 77.55206,249.10895 c 1.85608,-1.91224 3.81324,-3.73719 5.55103,-5.75147 8.55872,-9.92035 18.58777,-18.71753 23.89362,-31.13678 3.29535,-7.71322 6.40985,-15.47412 7.26904,-24.14428 -2.27802,-0.016 -3.18085,1.31054 -4.30029,2.22607 -5.28144,4.31952 -10.47205,8.72919 -16.16047,12.55664 -3.2564,2.1911 -5.74249,2.07632 -9.05908,0.11844 -19.94885,-11.77646 -39.42511,-24.25144 -58.13467,-37.92767 -2.86878,-2.09699 -5.41495,-4.94474 -9.23706,-5.61341 -1.81644,1.7291 -1.3468,3.84458 -1.28467,5.75348 0.21845,6.70697 -0.2229,13.47519 -2.29333,19.73785 -2.23508,6.76069 0.0622,11.00556 4.57418,15.72486 16.72663,17.49521 35.55201,32.67526 53.23505,49.10739 2.0852,1.93762 3.6936,1.85126 5.94665,-0.65112 m -89.8323,10.21698 c 11.51739,10.43396 23.79343,19.81591 37.51495,27.21942 2.48319,1.33984 4.65958,1.98706 7.39331,0.2431 13.55173,-8.64526 25.8942,-18.72748 37.0408,-30.30371 2.37275,-2.46423 1.94794,-3.98944 -0.83349,-5.86896 -16.73187,-11.30633 -32.2648,-24.12817 -47.12772,-37.77759 -3.87591,-3.5595 -7.7785,-7.08993 -11.47525,-10.45736 -2.17416,1.05166 -2.37326,2.67871 -2.94305,4.00168 -5.95032,13.81622 -13.3107,26.84143 -21.84036,39.21844 -4.99714,7.2511 -4.99567,7.25208 2.27081,13.72498 m 69.85135,-120.70847 c -13.28446,-5.34589 -25.17142,-13.24121 -37.46073,-21.24502 -3.41848,6.06323 -4.86972,12.27572 -7.53149,17.94711 -2.4108,5.13663 -0.65845,9.11572 3.19028,12.31412 21.95865,18.24823 45.58807,34.01556 70.8349,47.3656 2.30719,1.22 4.10901,1.37143 6.38928,-0.19519 8.83356,-6.06907 16.70514,-13.19184 23.92291,-21.07532 1.13703,-1.24191 2.13721,-2.49704 2.05329,-4.36762 -0.32081,-7.14935 -0.80561,-14.26446 -2.28278,-21.30242 -0.71692,-3.41559 -2.19153,-3.83603 -5.25732,-2.64057 -5.30713,2.0694 -10.87714,2.88443 -16.62201,2.75061 -12.89936,-0.30051 -24.78577,-4.47385 -37.23633,-9.5513 m -0.54273,-29.47482 c -12.45559,-6.28083 -23.04998,-14.91461 -32.13513,-26.38303 -3.62369,5.47366 -6.66662,10.39725 -10.05569,15.06973 -2.11856,2.9209 -1.65833,4.86695 0.90286,7.20945 18.20651,16.65194 38.57849,29.45889 62.61499,35.94787 10.54895,2.84784 20.92578,3.40262 31.2077,-1.21359 2.99774,-1.34586 3.99408,-2.99042 2.95728,-6.18695 -1.48688,-4.58399 -2.76551,-9.24332 -3.92804,-13.92145 -0.59686,-2.40164 -2.00421,-2.82004 -4.06836,-2.37787 -16.63818,3.56409 -31.94928,-0.81643 -47.49561,-8.14416 m 59.68451,-50.54828 c 4.95801,3.27734 8.0954,7.82791 9.30829,13.63214 0.61713,2.953 2.28839,4.6683 5.1955,5.33209 7.61505,1.73874 11.16638,7.04505 12.88397,14.25061 1.02948,4.31903 0.49097,8.71945 1.55597,13.57416 2.23987,-1.54062 3.71063,-3.54956 5.31018,-5.45022 15.96057,-18.96534 17.30853,-48.8927 3.09643,-69.28113 -4.0642,-5.83042 -8.69897,-6.96982 -15.00109,-3.51798 -2.77576,1.52033 -5.19788,3.52396 -7.3487,5.9043 -5.83374,6.45605 -10.24017,13.90945 -14.99041,21.12338 -0.79364,1.20523 -1.90394,2.48291 -0.0101,4.43265 m -100.36377,0.867 c -0.85595,-3.94244 -0.97723,-7.89621 -0.38144,-11.89737 0.81522,-5.47473 0.0333,-6.0216 -5.48819,-4.91882 -12.08416,2.41355 -22.82412,7.94608 -33.46963,13.84039 -4.15201,2.29898 -6.92484,5.26453 -8.52887,9.80259 -1.99442,5.64267 -4.98053,10.8735 -8.12717,15.98645 -0.70901,1.15203 -2.20376,2.20373 -1.16208,3.9906 0.48383,0.0899 0.97254,0.28262 1.44815,0.25445 15.48649,-0.91653 30.11271,1.99134 43.58197,9.89285 2.64264,1.55027 3.86448,0.15888 5.18198,-1.84079 3.293,-4.99801 6.57331,-10.01278 10.10135,-14.84359 1.48767,-2.03708 1.56412,-3.74744 0.61862,-5.95807 -1.83722,-4.29566 -2.94824,-8.82379 -3.77469,-14.30869 m 12.38166,-41.59131 c 0.008,-2.80761 -2.56168,-2.76293 -4.16376,-3.40298 -6.48993,-2.59262 -13.21622,-4.39008 -20.10578,-5.6922 -15.89148,-3.00348 -15.87658,-3.09024 -24.23144,10.56912 -0.43271,0.70746 -0.91507,1.41266 -1.18207,2.18534 -0.25967,0.75146 -0.66907,1.96991 -0.32773,2.32522 2.06092,2.14514 0.38251,3.99399 -0.19842,5.96164 -1.90839,6.46375 -3.77979,12.93839 -5.72824,19.62445 1.1365,0.0904 1.68179,0.30612 2.05453,0.13843 12.94663,-5.82556 26.23172,-10.4874 40.48273,-11.83041 2.23645,-0.21076 2.98294,-1.75843 3.67764,-3.53281 2.26261,-5.77893 5.42792,-11.02954 9.72254,-16.3458 m -57.51685,76.89875 c -1.33273,-6.1e-4 -2.67664,0.11035 -3.99628,-0.0214 -5.28851,-0.52807 -8.69369,1.43 -10.76886,6.60242 -2.10354,5.2432 -5.39016,9.93597 -8.75207,14.51614 -0.88422,1.20466 -2.29074,2.35654 -1.79651,4.50831 22.31753,-7.20563 42.60407,-4.90213 60.29687,11.92529 2.64148,-6.06113 4.95466,-11.56354 7.44138,-16.98636 1.1066,-2.4133 -0.12704,-3.65097 -1.76776,-5.03583 -11.47589,-9.6864 -24.6395,-14.99579 -40.65677,-15.50854 z"
   id="path1"
   style="display:inline;mix-blend-mode:normal;opacity:1;fill:#2b2c2c;fill-opacity:1" />
<path
   fill="#000000"
   opacity="1.000000"
   stroke="none"
   d=" M651.288086,481.146820   C653.463440,514.342346 635.110779,560.989319 602.118469,593.445557   C616.363159,584.928101 628.957214,574.269958 640.681519,562.622375   C654.524719,548.869812 667.505188,534.365173 677.517029,517.429749   C680.353638,512.631653 683.032593,507.957367 683.070618,502.188599   C683.080444,500.714874 683.451599,499.210052 684.502991,498.132660   C686.363037,497.016235 687.013062,499.656067 689.675293,499.003601   C694.488708,487.672424 704.319214,477.508270 701.991577,462.855835   C701.724915,461.177124 701.669189,459.417053 703.249512,458.296906   C705.101929,456.983917 706.059265,459.628265 708.185669,459.467896   C712.320068,448.844666 717.809326,438.421783 715.629028,426.168243   C715.123413,423.326569 714.854431,420.699127 719.082520,420.743347   C720.834229,420.761688 721.747314,419.261993 722.040771,417.773621   C724.085632,407.402588 728.047119,397.192108 724.769836,386.338898   C724.389954,385.080872 724.314087,383.901184 723.202393,382.853638   C712.775085,373.027527 710.958984,360.413940 712.209534,347.049133   C712.612122,342.746002 712.291748,338.093781 714.976624,334.002136   C725.306763,347.493835 733.783752,359.157318 731.640930,383.097504   C734.845764,368.638306 736.249573,355.177704 735.815613,341.526459   C734.678589,346.131226 735.781799,351.069580 733.989441,355.724457   C723.061279,347.932892 725.432739,311.834961 737.997620,297.543274   C742.357910,307.048157 744.987610,316.720306 746.699524,326.643829   C748.459778,336.847504 743.580139,346.176422 742.515015,356.243073   C748.260742,351.570435 753.026978,346.087555 757.479065,340.199982   C758.228882,340.795197 758.883423,341.055725 758.914368,341.376465   C760.529236,358.109222 758.343079,373.703552 745.078613,385.767426   C743.523499,387.181763 741.721069,390.103027 739.175659,386.589233   C731.305908,398.446899 729.243408,411.953369 728.103455,425.884277   C732.445801,418.177765 733.870972,409.072937 740.000000,402.329529   C746.181396,395.528656 754.627563,391.405060 761.088623,384.425476   C761.203369,397.291229 757.750916,408.968323 750.124939,419.262177   C744.405945,426.981903 737.005066,430.874756 731.734314,429.518585   C720.837280,441.563049 711.419189,465.124603 715.655273,469.760864   C715.740601,471.080658 714.865479,471.948456 714.063965,472.747681   C705.129211,481.657654 700.888245,493.458344 694.649597,504.031555   C693.132019,506.603546 693.384644,508.213196 696.177673,509.219421   C695.475464,512.433350 692.962646,513.700684 691.010559,515.400085   C688.286926,517.771118 684.846802,519.579834 685.106201,524.023621   C685.138672,524.579224 684.660889,525.375305 684.177246,525.719299   C674.205261,532.811035 668.854370,543.970093 660.504578,552.542847   C649.443909,563.898865 637.887695,574.660522 625.915649,585.012878   C624.928894,585.866150 623.992920,586.778076 623.221130,587.899902   C630.093445,584.913635 635.911377,580.267761 642.184998,576.369202   C671.160034,558.363342 702.319641,547.294922 736.758667,546.707275   C738.250732,546.681824 739.747620,546.801270 741.237244,546.917847   C741.484741,546.937195 741.706238,547.289734 741.906067,547.459656   C741.733398,548.921387 740.605469,548.965576 739.668640,549.091797   C704.724426,553.802490 673.832825,568.601135 644.395874,587.138855   C632.426208,594.676636 620.555481,602.399292 607.442749,607.971069   C595.130249,613.202698 582.453857,616.075378 569.036377,615.165649   C567.624573,615.069885 565.978882,615.551392 564.570190,613.434448   C613.539429,576.228333 640.619141,526.468933 648.045227,465.449585   C650.758423,470.274994 650.486938,475.588654 651.288086,481.146820  z"
   id="path2"
   style="fill:#2b2c2c;fill-opacity:1" />
<path
   fill="#000000"
   opacity="1.000000"
   stroke="none"
   d=" M563.015564,209.144516   C526.905029,200.539642 491.378052,201.215729 455.943481,210.796127   C416.596405,221.434387 382.422272,241.045593 353.985870,270.176483   C319.120300,305.893524 298.321045,348.887665 291.619293,398.210846   C286.671844,434.622681 291.375610,470.272675 304.871094,504.585632   C308.337921,513.400208 311.055939,522.397339 313.239227,531.659180   C310.939209,532.310730 310.693481,530.600342 310.126770,529.626404   C292.576843,499.468628 281.948090,467.151459 280.701324,432.131714   C278.183258,361.403931 303.305389,301.674500 354.372894,253.230728   C390.744476,218.727875 434.544891,198.471725 484.383820,192.710144   C559.271729,184.052795 623.261658,206.984436 675.866760,261.170105   C691.374451,277.143738 703.213196,295.134705 706.423340,317.762085   C706.575195,318.832245 707.581055,319.916138 705.764709,321.706116   C674.672424,263.409668 627.541199,225.448776 563.015564,209.144516  z"
   id="path3"
   style="fill:#2b2c2c;fill-opacity:1" />
<path
   fill="#000000"
   opacity="1.000000"
   stroke="none"
   d=" M478.567993,813.524414   C448.300629,800.790222 418.381927,788.213013 388.187317,775.519897   C389.834198,773.511780 390.954407,774.198486 392.021118,774.513977   C426.674316,784.761475 461.319275,795.035400 495.250061,807.540649   C496.500092,808.001282 497.906738,808.257263 498.956696,809.006287   C508.425537,815.761536 517.143433,813.515381 527.360901,809.246948   C555.952454,797.302795 585.881897,789.030762 615.500061,779.973328   C622.592529,777.804443 629.746216,775.835388 637.408813,773.619019   C637.084167,776.806213 635.012695,776.887634 633.528381,777.513123   C600.535645,791.416809 567.511902,805.247192 534.551636,819.227356   C528.737000,821.693726 523.083252,824.590698 517.541321,827.628479   C514.445801,829.325256 511.839172,829.630188 508.701782,827.778503   C499.211761,822.177124 489.074005,817.898560 478.567993,813.524414  z"
   id="path4"
   style="fill:#2b2c2c;fill-opacity:1" />
<path
   fill="#000000"
   opacity="1.000000"
   stroke="none"
   d=" M604.907593,680.130005   C604.859436,685.536804 604.072571,690.655273 609.644043,695.047119   C601.993225,696.606873 595.761780,696.820862 587.999756,694.826294   C593.777466,690.798035 592.751526,685.773193 592.773682,681.028503   C592.816467,671.872070 592.821960,662.715149 592.782227,653.558716   C592.761719,648.821106 593.823486,643.789917 589.138245,640.584839   C589.707642,639.807312 589.883789,639.330078 590.092957,639.315247   C601.024475,638.535339 612.007324,637.663879 622.810730,640.075073   C629.532166,641.575195 634.051453,645.950806 635.048096,653.005127   C636.014893,659.847961 633.649231,665.603943 627.686951,669.279236   C624.424683,671.290283 624.321411,673.154907 626.252991,676.076660   C630.508667,682.513855 633.788757,689.644836 640.466675,694.457214   C633.009399,698.339783 625.434753,696.574097 621.698059,690.514160   C618.990051,686.122375 616.318665,681.706909 613.707764,677.256836   C612.284302,674.830750 610.742188,672.694580 607.470764,673.473999   C603.831787,674.341003 605.399353,677.444153 604.907593,680.130005  M613.930481,665.728455   C614.422363,665.657410 614.934937,665.652039 615.403076,665.505249   C620.897217,663.781860 623.640442,659.505981 622.671021,654.213867   C621.637085,648.569336 616.885681,645.858032 609.166199,646.212158   C602.463074,646.519592 605.848999,651.739624 604.819397,654.800415   C604.613525,655.412292 604.653442,656.112366 604.613098,656.773804   C604.096191,665.258972 604.762634,665.966797 613.930481,665.728455  z"
   id="path5"
   style="fill:#2b2c2c;fill-opacity:1" />
<path
   fill="#000000"
   opacity="1.000000"
   stroke="none"
   d=" M281.114014,649.358032   C284.438660,659.815186 280.301666,666.806641 271.344055,671.817932   C273.960175,676.146790 276.483063,680.038635 278.713623,684.091370   C280.965576,688.182861 283.869019,691.658752 288.299103,694.092102   C281.384430,698.343384 272.826782,696.608337 269.282959,690.848572   C266.491699,686.311951 263.745483,681.742676 261.148102,677.093567   C259.601013,674.324402 257.635986,672.615173 254.343460,673.458374   C250.987900,674.317810 252.208420,677.207947 252.166031,679.295776   C252.056656,684.684021 250.970566,690.374329 256.988800,695.136841   C249.545410,696.665588 243.390747,696.560852 235.745987,695.249939   C242.046158,690.071106 239.947327,684.049622 240.087936,678.414124   C240.324554,668.930725 239.514481,659.420776 240.590836,649.965515   C241.042542,645.997437 238.772354,643.143372 236.224960,638.715820   C249.997391,639.673157 262.932098,636.063660 275.204437,642.312134   C277.951752,643.710999 279.812775,646.098877 281.114014,649.358032  M252.102570,660.272034   C252.389221,662.410095 251.302917,665.380859 254.825836,665.718506   C257.953308,666.018066 261.142731,666.157349 264.187531,664.990234   C268.839508,663.207031 271.006409,658.497375 269.687683,653.057678   C268.510376,648.201416 263.068726,645.564880 255.757050,646.261780   C249.788132,646.830811 252.817886,651.464661 252.163177,654.363464   C251.806000,655.944885 252.099075,657.673157 252.102570,660.272034  z"
   id="path6"
   style="fill:#2b2c2c;fill-opacity:1" />
<path
   fill="#000000"
   opacity="1.000000"
   stroke="none"
   d=" M421.228790,673.999878   C421.231750,679.826233 421.304321,685.153809 421.203369,690.478210   C421.164978,692.502014 422.005981,695.224182 419.114899,695.959961   C416.295471,696.677551 413.580231,696.394226 411.532074,693.659912   C406.943665,687.534485 402.182220,681.538757 397.509491,675.476196   C392.849884,669.430664 388.212585,663.367920 383.208344,656.847412   C381.803497,659.350830 382.328400,661.490845 382.297424,663.490112   C382.217529,668.648682 382.255402,673.809631 382.294037,678.969299   C382.335632,684.522583 381.062439,690.428772 386.794678,694.992981   C381.068665,696.456116 375.763519,696.501404 369.119171,695.342896   C375.595795,689.896240 373.739288,683.346191 373.885742,677.265625   C374.074066,669.447510 373.941101,661.621033 373.911438,653.798279   C373.892822,648.885742 375.051483,643.604797 369.224396,640.598450   C375.514679,636.898132 384.092682,638.301880 387.841827,643.197693   C395.817719,653.612976 403.767639,664.048096 412.355682,674.303406   C411.246368,662.854187 416.037354,651.025330 409.019836,639.339294   C414.214630,638.372131 419.272644,638.596252 424.624481,639.114380   C418.311951,650.455505 422.481628,662.228210 421.228790,673.999878  z"
   id="path7"
   style="fill:#2b2c2c;fill-opacity:1" />
<path
   fill="#000000"
   opacity="1.000000"
   stroke="none"
   d=" M690.433350,672.306641   C691.178589,677.296753 694.885315,680.348999 696.781372,684.379761   C698.723022,688.507324 702.287720,691.227844 705.695557,694.177795   C699.672363,698.311951 690.794739,696.705872 687.417542,691.262085   C684.259949,686.172058 681.125977,681.066345 678.064758,675.918030   C676.901123,673.961121 675.454529,673.024902 673.134827,673.568054   C670.697266,674.138733 670.002930,675.831604 670.111267,678.037903   C670.389221,683.697266 668.435547,689.806458 674.526733,695.048096   C667.300842,696.850220 661.151306,696.326965 653.700134,695.504822   C661.379150,687.524170 657.885010,678.565063 658.533752,670.242737   C658.907654,665.446289 658.530212,660.593323 658.540039,655.765930   C658.551086,650.321228 659.656982,644.645203 654.957764,640.936157   C655.223083,639.491821 655.720093,638.992432 656.413818,638.973450   C665.889343,638.713806 675.398743,638.052551 684.823547,639.289185   C692.017029,640.232971 698.026489,643.507446 699.858826,651.202454   C701.697937,658.925964 699.330017,665.314514 692.497253,669.803711   C691.700256,670.327332 691.152344,671.229919 690.433350,672.306641  M686.829895,650.987244   C683.682678,646.354736 678.936890,646.150391 674.006531,646.223572   C671.257385,646.264343 670.116150,647.479858 670.151550,650.151184   C670.202026,653.957703 670.139404,657.765564 670.150208,661.572754   C670.156372,663.752869 670.769409,665.289062 673.330566,665.789124   C683.624939,667.798828 689.572449,661.816406 686.829895,650.987244  z"
   id="path8"
   style="fill:#2b2c2c;fill-opacity:1" />
<path
   fill="#000000"
   opacity="1.000000"
   stroke="none"
   d=" M759.362793,693.635864   C751.317749,697.514526 743.378479,698.109680 735.254333,695.425476   C720.856628,690.668579 713.296570,675.029480 717.492981,658.793335   C721.336243,643.923340 735.362549,635.256592 750.935486,638.129456   C763.141418,640.381226 771.546753,648.716797 773.870789,660.874329   C776.417664,674.197998 771.041565,686.551880 759.362793,693.635864  M732.319153,652.957642   C728.187256,661.316223 727.977173,669.917786 731.103699,678.564819   C733.449707,685.053162 739.205261,688.945374 745.551331,688.820007   C752.349548,688.685669 757.306641,685.025330 759.824036,678.360840   C761.623962,673.595947 762.292786,668.642639 761.536499,663.664124   C760.393738,656.142090 757.666748,649.347778 749.759155,646.557556   C742.756348,644.086548 737.083313,646.546448 732.319153,652.957642  z"
   id="path9"
   style="fill:#2b2c2c;fill-opacity:1" />
<path
   fill="#000000"
   opacity="1.000000"
   stroke="none"
   d=" M327.953552,637.750610   C346.363678,638.887085 356.952332,650.901306 356.235870,669.326965   C355.621735,685.122131 343.089386,697.103027 327.267853,697.020508   C310.988770,696.935547 298.395050,684.672668 298.300262,668.813782   C298.189667,650.311340 309.432983,638.346497 327.953552,637.750610  M324.264923,645.675354   C319.186951,646.790527 315.465424,649.794678 313.488251,654.476318   C309.905182,662.960571 309.765320,671.654541 313.681854,680.057190   C316.541046,686.191528 321.605591,689.197998 328.546936,688.861450   C335.196350,688.538940 339.354767,684.728516 341.713287,679.026062   C344.812897,671.531555 344.813782,663.763062 341.781616,656.212891   C338.745758,648.653625 333.299988,645.334778 324.264923,645.675354  z"
   id="path10"
   style="fill:#2b2c2c;fill-opacity:1" />
<path
   fill="#000000"
   opacity="1.000000"
   stroke="none"
   d=" M523.994873,681.102539   C528.511536,669.788574 532.766479,658.779785 537.321655,647.896667   C538.620972,644.792419 537.440857,642.520142 535.196960,639.645813   C540.699890,638.204102 545.437866,638.521118 550.097351,639.115601   C552.121765,639.373901 552.426758,641.767395 553.076782,643.420959   C558.489807,657.190369 563.992676,670.927734 569.129333,684.800354   C570.537292,688.602844 573.263123,691.398132 575.955688,695.316528   C568.539734,696.739441 561.971619,696.389587 554.494263,695.575867   C557.190063,691.577637 558.188110,688.250732 556.051575,684.163513   C553.882385,680.014038 550.332825,680.318481 547.071289,680.538086   C542.058411,680.875732 536.015625,678.125854 532.371765,683.599304   C530.141235,686.949707 528.991577,691.036743 534.390381,694.866211   C527.451782,696.889954 521.986755,696.401245 515.797791,694.870117   C520.453430,691.320007 522.124023,686.373474 523.994873,681.102539  M549.491516,666.181580   C547.679993,662.383545 547.162903,657.942627 543.783386,654.326355   C540.598022,659.138611 539.506531,664.325623 537.833801,669.260376   C537.482849,670.295715 537.977905,671.343933 538.871033,671.867004   C541.649841,673.494751 544.720337,673.176880 547.565979,672.366882   C550.183838,671.621704 550.141174,669.233582 549.491516,666.181580  z"
   id="path11"
   style="fill:#2b2c2c;fill-opacity:1" />
<path
   fill="#000000"
   opacity="1.000000"
   stroke="none"
   d=" M479.005798,638.745422   C483.995392,638.823181 488.535858,638.514465 492.971741,639.058533   C504.092957,640.422424 510.589691,647.369507 510.146851,656.876343   C509.693115,666.616516 502.440430,673.450012 491.646057,674.245117   C489.823090,674.379395 487.960876,674.498596 486.157623,674.282959   C481.182404,673.688110 479.837982,676.068054 479.924408,680.672119   C480.085785,689.270874 479.900513,689.274353 484.134766,695.158508   C477.458221,696.928101 471.205231,696.396912 463.637634,695.325867   C469.616058,689.707092 467.892456,683.371826 467.992188,677.410889   C468.128693,669.253967 468.045013,661.092773 468.011200,652.933655   C467.992798,648.487366 468.857300,643.819641 463.903839,640.005127   C469.384125,637.871643 474.036652,639.135071 479.005798,638.745422  M488.981628,666.819946   C495.802795,665.234009 499.225403,659.765564 497.521881,653.174927   C496.223480,648.151794 490.906525,645.514648 483.698486,646.248047   C477.821838,646.845947 480.635742,651.398926 480.053772,654.336914   C479.737701,655.932617 479.993134,657.641357 479.988434,659.299072   C479.965942,667.207520 480.043884,667.280701 488.981628,666.819946  z"
   id="path12"
   style="fill:#2b2c2c;fill-opacity:1" />
<path
   fill="#000000"
   opacity="1.000000"
   stroke="none"
   d=" M796.848938,646.351990   C791.689209,645.791077 789.341125,649.941223 785.429382,652.638672   C784.159180,648.088440 784.536865,644.229553 785.308960,640.444092   C785.679260,638.628845 787.572632,638.744934 789.058655,638.742676   C801.864014,638.723083 814.669556,638.757385 827.474731,638.710876   C830.197144,638.700989 831.521851,639.834290 831.326721,642.586121   C831.105164,645.708923 833.266602,649.026245 830.941162,651.969910   C828.321899,651.989868 827.746094,649.875427 826.430725,648.726990   C823.529114,646.193787 820.107178,645.564575 816.644409,646.772278   C813.372498,647.913330 814.190308,651.149170 814.167480,653.698364   C814.087097,662.678162 814.108582,671.659180 814.148560,680.639526   C814.170410,685.559998 813.196533,690.743958 818.984131,695.058105   C811.344055,696.759094 805.172180,696.468933 798.117676,695.489258   C804.694946,686.911499 801.354919,677.726746 802.006165,669.043335   C802.427917,663.420837 802.067017,657.740845 802.087219,652.086670   C802.099121,648.779480 800.763428,646.662598 796.848938,646.351990  z"
   id="path13"
   style="fill:#2b2c2c;fill-opacity:1" />
<path
   fill="#000000"
   opacity="1.000000"
   stroke="none"
   d=" M214.187134,668.999756   C214.182816,673.494812 214.231842,677.490967 214.158447,681.484863   C214.072815,686.144531 213.666672,690.857971 218.810944,694.922668   C211.373123,696.835876 205.143631,696.580139 197.489685,695.211182   C203.841476,690.195068 202.597443,684.168274 202.628830,678.456787   C202.671829,670.633240 202.676651,662.809021 202.626541,654.985535   C202.593018,649.752380 203.753235,644.217285 197.419067,639.549377   C205.236938,638.326782 211.316360,638.690491 218.115982,639.009094   C211.335571,648.706726 215.260162,658.882324 214.187134,668.999756  z"
   id="path14"
   style="fill:#2b2c2c;fill-opacity:1" />
<path
   fill="#000000"
   opacity="1.000000"
   stroke="none"
   d=" M712.527954,507.871033   C707.449707,509.415680 702.767151,511.298615 697.901672,509.412537   C703.415588,485.176117 724.373718,480.606323 743.285217,473.323334   C736.160217,487.422821 728.273987,500.830658 712.527954,507.871033  z"
   id="path15"
   style="fill:#2b2c2c;fill-opacity:1" />
<path
   fill="#000000"
   opacity="1.000000"
   stroke="none"
   d=" M748.206787,450.083313   C741.289917,461.652435 732.654053,470.160553 718.190613,471.333221   C718.057312,459.195465 723.740723,450.642761 732.016541,443.502045   C738.951904,437.517975 748.067322,434.988098 755.482971,429.170624   C754.881958,436.755157 751.898438,443.345245 748.206787,450.083313  z"
   id="path16"
   style="fill:#2b2c2c;fill-opacity:1" />
<path
   fill="#000000"
   opacity="1.000000"
   stroke="none"
   d=" M685.210938,493.781982   C682.635193,496.813416 682.156006,493.792206 681.446167,492.603210   C677.510193,486.010040 675.851624,478.669952 675.829041,471.132690   C675.797791,460.614471 678.321899,450.517700 682.515930,440.685181   C688.529846,456.089569 699.862366,470.429535 690.913452,488.434296   C689.848206,490.577637 689.055298,492.845917 686.412292,489.308716   C685.966858,490.960083 685.627808,492.216827 685.210938,493.781982  z"
   id="path17"
   style="fill:#2b2c2c;fill-opacity:1" />
<path
   fill="#000000"
   opacity="1.000000"
   stroke="none"
   d=" M503.097290,720.802490   C506.587006,720.481628 508.447113,721.879700 509.708557,724.677185   C511.541992,728.742920 513.664612,732.678284 515.943420,737.227173   C519.105042,733.619019 520.396912,729.697815 522.194519,726.101501   C525.059387,720.369995 526.547974,719.706970 533.202271,721.672180   C531.810730,731.192261 531.714722,740.705566 533.219055,750.569763   C530.606506,751.871765 527.788025,751.364014 524.605286,750.680969   C525.873474,745.281921 526.251831,740.077209 524.615112,734.114929   C521.567932,739.719971 518.839600,744.738464 515.708008,750.498718   C511.455902,745.299927 510.299835,739.306396 506.109772,734.566345   C504.989258,740.211487 504.848511,745.231628 506.555420,750.362793   C503.841827,751.697510 501.375244,751.482788 498.872833,750.540039   C500.331726,740.948120 500.375275,731.581177 498.930176,721.837280   C499.601807,720.413391 501.290771,721.014771 503.097290,720.802490  z"
   id="path18"
   style="fill:#2b2c2c;fill-opacity:1" />
<path
   fill="#000000"
   opacity="1.000000"
   stroke="none"
   d=" M692.282227,415.498322   C692.998108,411.872223 692.853455,408.445404 695.526306,405.024963   C702.199280,417.975037 711.928894,429.384216 708.904663,445.014343   C708.353271,447.864197 709.660522,453.408112 703.253723,452.660156   C702.797424,452.606873 702.084717,454.749115 701.074951,456.656982   C689.584961,444.473206 689.642029,430.480896 692.282227,415.498322  z"
   id="path19"
   style="fill:#2b2c2c;fill-opacity:1" />
<path
   fill="#000000"
   opacity="1.000000"
   stroke="none"
   d=" M709.643799,376.382080   C713.115356,381.897186 716.614441,386.943298 718.699707,392.850281   C720.710999,398.547882 720.374756,404.298309 720.099182,410.123260   C719.899475,414.345337 715.510254,415.507935 714.255188,418.880371   C701.739014,412.370087 697.562805,385.149261 705.156311,368.076569   C706.736694,371.019806 708.093506,373.546631 709.643799,376.382080  z"
   id="path20"
   style="fill:#2b2c2c;fill-opacity:1" />
<path
   fill="#000000"
   opacity="1.000000"
   stroke="none"
   d=" M418.547607,726.449341   C417.685303,731.735291 415.658783,729.124695 413.556580,727.744446   C409.952728,725.378296 406.037598,724.746033 402.403229,727.503845   C398.539032,730.436096 397.667786,734.477478 399.006348,739.105652   C400.204193,743.247253 402.757141,745.720825 407.142548,745.908264   C409.290466,746.000122 411.713470,746.065430 412.504242,743.396301   C413.188263,741.087524 412.191559,739.602417 409.732361,739.050415   C408.656677,738.808960 408.181335,737.815308 408.389038,736.704773   C408.603912,735.555908 409.522400,735.022827 410.563812,735.020630   C413.968292,735.013428 417.466156,734.178101 420.604431,735.723389   C421.435791,737.555298 420.282501,738.864502 420.099335,740.302490   C418.977844,749.107910 417.114868,750.918823 408.822662,751.520264   C400.600098,752.116638 393.892090,748.113708 391.840485,741.386353   C389.895233,735.007690 392.024384,727.522400 396.854309,723.759766   C401.714294,719.973633 412.118073,719.512573 417.274261,722.737976   C418.663269,723.606934 418.969116,724.648682 418.547607,726.449341  z"
   id="path21"
   style="fill:#2b2c2c;fill-opacity:1" />
<path
   fill="#000000"
   opacity="1.000000"
   stroke="none"
   d=" M466.861389,750.860474   C465.550049,744.589294 460.016937,741.715393 454.324677,744.311951   C451.492371,745.604004 452.542694,748.273560 452.238831,750.539673   C449.524109,751.595520 447.022614,751.524109 444.189758,750.507935   C447.739319,741.732544 451.533966,733.271545 454.501068,724.529724   C455.577637,721.357910 456.956390,720.771362 459.745056,720.804138   C462.406982,720.835388 463.556000,722.385193 464.450012,724.514954   C468.038177,733.063293 471.197998,741.792114 475.642487,750.338745   C472.724915,751.899902 469.946259,751.221680 466.861389,750.860474  M458.303650,738.323547   C459.628754,738.612976 461.282349,739.016174 461.518402,737.192383   C461.751862,735.388550 461.118866,733.601135 458.764740,732.868164   C457.364166,734.416992 455.196259,735.657166 458.303650,738.323547  z"
   id="path22"
   style="fill:#2b2c2c;fill-opacity:1" />
<path
   fill="#000000"
   opacity="1.000000"
   stroke="none"
   d=" M569.137146,751.263611   C566.385071,751.091309 564.003357,751.756592 561.706604,750.393494   C563.109741,740.920349 563.282898,731.434326 561.522522,721.220581   C568.240662,720.407593 575.170166,720.356812 581.956421,721.152466   C585.857971,721.609863 583.777832,725.194214 584.195862,728.301819   C580.060242,726.171814 576.473511,726.087769 572.832397,726.259705   C570.622253,726.364075 569.473877,727.263977 569.422424,729.584229   C569.369263,731.983154 570.573486,732.858337 572.786316,732.836060   C575.252197,732.811279 577.718445,732.830444 580.470459,732.830444   C581.559204,734.700745 581.550781,736.834961 580.311340,738.980042   C577.900269,738.788208 575.624390,738.516479 573.342346,738.447571   C570.209229,738.352905 569.517029,740.411255 569.471252,743.041992   C569.422241,745.856567 571.408264,745.613159 573.248352,745.733948   C577.082825,745.985657 580.812561,745.592896 584.297668,743.791260   C585.944946,749.536926 584.862671,751.188843 579.595459,751.270386   C576.268433,751.321899 572.939758,751.268188 569.137146,751.263611  z"
   id="path23"
   style="fill:#2b2c2c;fill-opacity:1" />
<path
   fill="#000000"
   opacity="1.000000"
   stroke="none"
   d=" M622.276001,720.490417   C624.797119,720.796265 626.979553,720.929321 629.041931,721.497986   C633.854980,722.824951 634.116821,723.707153 631.449890,728.738220   C629.105530,727.691467 626.803223,726.434753 624.350708,725.642761   C622.481018,725.039062 620.496399,725.693298 619.701111,727.600891   C618.701660,729.998352 620.792114,730.778259 622.456543,731.504761   C624.892822,732.568237 627.441040,733.382996 629.846375,734.507446   C633.213440,736.081421 634.867432,739.003235 634.705872,742.576538   C634.534546,746.366455 632.387451,749.132446 628.822937,750.571411   C623.699829,752.639404 618.539001,751.908081 613.767944,749.740356   C610.114929,748.080688 611.881592,744.812012 612.399902,741.643799   C615.731628,742.737427 617.506226,745.846069 620.843323,746.182617   C623.500977,746.450562 626.271118,746.646484 627.282593,743.889221   C628.409180,740.818298 625.375000,740.126892 623.325134,739.204834   C621.813721,738.524902 620.183289,738.111694 618.611572,737.563477   C614.510315,736.132996 611.475525,733.787842 611.786011,728.934937   C612.088745,724.202637 615.237488,721.993225 619.410034,720.854248   C620.205750,720.636963 621.057068,720.623169 622.276001,720.490417  z"
   id="path24"
   style="fill:#2b2c2c;fill-opacity:1" />
<path
   fill="#000000"
   opacity="1.000000"
   stroke="none"
   d=" M517.170044,783.919434   C524.669373,792.691711 523.996643,800.708740 516.095703,808.390137   C515.163574,809.296448 514.472900,810.451050 512.995422,812.364563   C509.406952,807.299683 506.048187,802.674561 502.864502,797.931885   C502.422668,797.273621 502.539856,795.892029 502.916565,795.088135   C505.658569,789.237427 508.641937,783.513916 512.615295,778.101379   C515.228638,779.320496 515.700073,781.799866 517.170044,783.919434  z"
   id="path25"
   style="fill:#2b2c2c;fill-opacity:1" />
<path
   fill="#000000"
   opacity="1.000000"
   stroke="none"
   d=" M673.074829,733.736755   C691.907104,734.070190 710.245239,734.499329 729.753662,735.581116   C727.165344,739.102722 724.925903,738.974609 722.859253,739.020081   C704.908447,739.414795 686.956360,739.756287 669.004700,740.112183   C668.672241,740.118774 668.339172,740.119873 668.007080,740.106140   C665.495605,740.002319 662.244446,740.097839 662.290894,736.834900   C662.337280,733.574219 665.600952,733.779480 668.096680,733.731140   C669.592712,733.702148 671.089783,733.731445 673.074829,733.736755  z"
   id="path26"
   style="fill:#2b2c2c;fill-opacity:1" />
<path
   fill="#000000"
   opacity="1.000000"
   stroke="none"
   d=" M322.999023,739.208618   C314.225647,738.615784 305.781860,740.010498 297.110779,737.649536   C298.493347,734.909180 300.414551,735.100952 302.125214,735.058044   C320.250549,734.602783 338.376801,734.183716 356.502930,733.760559   C357.334137,733.741150 358.166626,733.781067 358.998566,733.787537   C361.153198,733.804199 363.429535,734.397583 363.566681,736.699829   C363.736328,739.547668 361.102051,739.999817 358.918243,739.966309   C347.110748,739.785217 335.305237,739.475708 322.999023,739.208618  z"
   id="path27"
   style="fill:#2b2c2c;fill-opacity:1" />
<path
   fill="#000000"
   opacity="1.000000"
   stroke="none"
   d=" M521.315796,323.891327   C518.862732,323.040344 516.707764,322.305756 512.882751,321.001831   C521.334778,319.121643 525.956970,313.178528 532.506348,310.615234   C541.772034,306.988861 552.398621,314.566406 552.483887,324.547760   C552.502197,326.688843 552.486572,328.830200 552.486572,331.004822   C551.160095,331.618103 549.783264,332.145752 548.511169,332.859985   C536.826843,339.419556 527.632019,334.456879 527.034363,321.219543   C524.530151,320.795776 523.998596,324.219330 521.315796,323.891327  z"
   id="path28"
   style="fill:#2b2c2c;fill-opacity:1" />
<path
   fill="#000000"
   opacity="1.000000"
   stroke="none"
   d=" M552.751343,486.767395   C550.576477,488.467896 549.033875,487.839569 547.980164,485.969269   C547.188904,484.564728 547.275146,483.052551 548.625732,481.919830   C549.551331,481.143555 550.644592,480.653473 551.816162,481.390778   C553.870728,482.683807 554.169556,484.437164 552.751343,486.767395  z"
   id="path29"
   style="fill:#2b2c2c;fill-opacity:1" />
<path
   fill="#000000"
   opacity="1.000000"
   stroke="none"
   d=" M554.308350,452.546844   C554.692810,454.982117 553.849792,456.458801 551.766663,456.859619   C550.299683,457.141937 549.265442,456.177032 548.823975,454.828461   C548.263977,453.118439 548.595276,451.514679 550.242859,450.570038   C552.155151,449.473572 553.252869,450.758148 554.308350,452.546844  z"
   id="path30"
   style="fill:#2b2c2c;fill-opacity:1" />
<path
   fill="#000000"
   opacity="1.000000"
   stroke="none"
   d=" M597.079956,336.051147   C594.866272,334.812317 594.178711,333.347473 595.490234,331.425385   C596.405396,330.084167 597.723206,329.488770 599.340820,329.921600   C600.790955,330.309570 601.611572,331.391388 601.500854,332.830688   C601.317261,335.217865 599.770630,336.209900 597.079956,336.051147  z"
   id="path31"
   style="fill:#2b2c2c;fill-opacity:1" />
<path
   fill="#000000"
   opacity="1.000000"
   stroke="none"
   d=" M445.300171,378.140442   C445.231781,380.626587 444.131012,381.902100 441.989014,382.019318   C440.663605,382.091827 439.859924,381.212860 439.553833,379.973755   C439.139923,378.298279 439.845337,377.004669 441.287689,376.251617   C443.082520,375.314575 444.467804,375.867737 445.300171,378.140442  z"
   id="path32"
   style="fill:#2b2c2c;fill-opacity:1" />
</svg>
